<?xml version="1.0" encoding="UTF-8"?>
<!DOCTYPE svg PUBLIC "-//W3C//DTD SVG 1.1//EN" "http://www.w3.org/Graphics/SVG/1.1/DTD/svg11.dtd">
<!-- Creator: CorelDRAW -->
<svg xmlns="http://www.w3.org/2000/svg" xml:space="preserve" width="140.865mm" height="149.463mm" version="1.1" style="shape-rendering:geometricPrecision; text-rendering:geometricPrecision; image-rendering:optimizeQuality; fill-rule:evenodd; clip-rule:evenodd"
viewBox="0 0 4024.83 4270.49"
 xmlns:xlink="http://www.w3.org/1999/xlink"
 xmlns:xodm="http://www.corel.com/coreldraw/odm/2003">
 <defs>
  <style type="text/css">
   <![CDATA[
    .fil0 {fill:white}
   ]]>
  </style>
 </defs>
 <g id="Layer_x0020_1">
  <metadata id="CorelCorpID_0Corel-Layer"/>
  <g id="_50335748768">
   <path class="fil0" d="M-0 3560.37c0,172.33 1.67,261.14 99.09,413.76 52.58,82.37 124.5,149.01 212.11,202.12 87.25,52.9 183.1,85.14 319.91,84.42l2061.33 -0.06c-6.62,-5.75 -4.29,-4.09 -15.92,-13.66l-139.05 -117.37c-177.55,-214.5 -259.26,-374.45 -259.26,-687.57 0,-134.37 40.23,-274.62 85.35,-368.34 27.56,-57.2 48.97,-97.3 82.37,-144.48 101.95,-144.06 213.25,-234.09 374.69,-315.68 99.12,-50.07 225.32,-88.71 374.81,-88.71 -41.12,-61.4 -226.66,-134.08 -301.39,-162.14 -107.5,-40.32 -257.14,-74.55 -398.82,-74.55l-1203.25 0c-408.84,0 -807.86,232.96 -1041.27,556.42 -22.3,30.92 -45.92,65.28 -62.92,94.89 -99.42,173.05 -187.78,390.41 -187.78,620.95z"/>
   <path class="fil0" d="M946.8 897.5c0,235.31 36.17,405.91 167.68,591.72 161.63,228.31 440,404.37 729.79,404.37 234.69,0 412.53,-38.26 597.48,-171.8l222.7 -221.12c270.59,-366.4 221.24,-908.8 -97.33,-1227.38 -150.77,-150.77 -407.67,-273.3 -634.07,-273.3 -177.01,0 -290.75,13.09 -443.96,88.63 -310.04,152.83 -542.28,463.71 -542.28,808.88z"/>
   <path class="fil0" d="M2761.48 3471.6c0,-38.94 44.79,-78.87 88.78,-78.87l305.75 0 0 -305.75c0,-114.75 157.78,-114.75 157.78,0l0 305.75 305.75 0c114.72,0 114.72,157.78 0,157.78l-305.75 0 0 305.75c0,114.72 -157.78,114.72 -157.78,0l0 -305.75 -305.75 0c-43.98,0 -88.78,-39.93 -88.78,-78.91zm-335.33 0c0,435.97 367.21,798.89 769.28,798.89 286.25,0 510.62,-103.89 677.85,-328.15 178.56,-239.43 193.81,-547.47 74.76,-818.96 -155.87,-355.49 -649.37,-573.54 -1061.81,-375.23 -166.22,79.89 -320.93,228.72 -389.84,399.17 -37.46,92.71 -70.23,195.95 -70.23,324.27z"/>
  </g>
 </g>
</svg>
