<?xml version="1.0" encoding="UTF-8"?>
<!DOCTYPE svg PUBLIC "-//W3C//DTD SVG 1.1//EN" "http://www.w3.org/Graphics/SVG/1.1/DTD/svg11.dtd">
<!-- Creator: CorelDRAW -->
<svg xmlns="http://www.w3.org/2000/svg" xml:space="preserve" width="227.537mm" height="164.185mm" version="1.1" style="shape-rendering:geometricPrecision; text-rendering:geometricPrecision; image-rendering:optimizeQuality; fill-rule:evenodd; clip-rule:evenodd"
viewBox="0 0 25542.51 18430.78"
 xmlns:xlink="http://www.w3.org/1999/xlink"
 xmlns:xodm="http://www.corel.com/coreldraw/odm/2003">
 <defs>
  <style type="text/css">
   <![CDATA[
    .fil0 {fill:white}
   ]]>
  </style>
 </defs>
 <g id="Layer_x0020_1">
  <metadata id="CorelCorpID_0Corel-Layer"/>
  <g id="_50803980416">
   <path class="fil0" d="M3609.87 12773.36c0,-526.98 426.07,-888.58 944.11,-888.58l3332.19 0c1345.91,0 1345.91,1777.16 0,1777.16l-3332.19 0c-518.04,0 -944.11,-361.6 -944.11,-888.59zm-3609.87 777.51c0,844.5 105.31,1324.02 388.12,1888.89 127.78,255.23 261.05,456.74 436.13,674.58 138.81,172.71 442.8,427.71 621.74,544.53 1186.84,774.69 2404.85,557.4 4052.13,557.4 3073.01,0 6146.02,0 9219.03,0 -523.24,-781.39 -565.07,-623.24 -1074.38,-1757.98 -1214.6,-2706.05 -366.06,-6154.73 1962.49,-7961.36 240.41,-186.53 436.02,-337.44 711.55,-510.25l681.17 -374.03c10.64,-5.4 26.76,-14.32 36.26,-19.3l-17034.23 -40.08 0 6997.58z"/>
   <path class="fil0" d="M-0 3609.87l0 1166.25 23158.68 0c0,-1497.43 161.16,-2755.47 -1063.39,-3879.36 -635.62,-583.33 -1344.92,-896.77 -2546.48,-896.77l-15938.94 0c-2209.65,0 -3609.87,1400.22 -3609.87,3609.87z"/>
   <path class="fil0" d="M19437.73 15439.12c-540.14,0 -937.79,-521.27 -1235.67,-819.16 -276.21,-276.21 -874.71,-753.77 -874.71,-1235.68 0,-501.93 386.64,-888.58 888.59,-888.58 673.38,0 730.9,605.72 1166.28,721.97 51.68,-193.62 842.61,-1122.41 982.19,-1294.8 182.26,-225.09 305.38,-394.97 484.34,-626.38 757.41,-979.31 1699.03,-242.84 1699.03,366.16 0,491.36 -1049.43,1645.81 -1381.11,2062.14 -261.43,328.09 -497.58,622.59 -767.56,954.08 -170.39,209.21 -480.82,760.26 -961.36,760.26zm166.62 -8274.91c-395.32,95.2 -890.09,-110.46 -2258.7,573.65 -688.92,344.38 -1106.61,701.56 -1616.07,1216.3 -229.58,231.94 -412.32,504.33 -601.86,786.56 -864.67,1287.52 -1097.47,2981.57 -688.96,4532.85 101.17,384.14 238.74,698.07 407.75,1036.18 620.35,1241.05 1671.42,2194.26 2956.28,2708.44 533.97,213.66 1641.57,497.8 2380.55,388.32 211.79,-31.36 447.49,-36.25 604.56,-62.2 1647.72,-272.42 2931.7,-1173.28 3848.41,-2538.27 544.7,-811.07 1027.79,-2328.53 878.84,-3333.99 -144.58,-975.99 -72.76,-1185.01 -597.62,-2235.04 -781.29,-1562.97 -2301.02,-2720.05 -4034.54,-3018.59 -225.23,-38.77 -393.62,-35.85 -651.95,-70.23 -484.6,-64.42 -256.45,-73.16 -626.69,16.02z"/>
  </g>
 </g>
</svg>
