<?xml version="1.0" encoding="UTF-8"?>
<!DOCTYPE svg PUBLIC "-//W3C//DTD SVG 1.1//EN" "http://www.w3.org/Graphics/SVG/1.1/DTD/svg11.dtd">
<!-- Creator: CorelDRAW -->
<svg xmlns="http://www.w3.org/2000/svg" xml:space="preserve" width="130.722mm" height="122.788mm" version="1.1" style="shape-rendering:geometricPrecision; text-rendering:geometricPrecision; image-rendering:optimizeQuality; fill-rule:evenodd; clip-rule:evenodd"
viewBox="0 0 3614 3394.63"
 xmlns:xlink="http://www.w3.org/1999/xlink"
 xmlns:xodm="http://www.corel.com/coreldraw/odm/2003">
 <defs>
  <style type="text/css">
   <![CDATA[
    .fil0 {fill:white}
   ]]>
  </style>
 </defs>
 <g id="Layer_x0020_1">
  <metadata id="CorelCorpID_0Corel-Layer"/>
  <g id="_50293886432">
   <path class="fil0" d="M109.74 1616.79c0,88.4 -1.48,338.3 29.26,402.37 -82,39.34 -139,21.04 -139,80.47 0,24.41 42.4,40.43 84.86,68.77 48.75,32.55 249.08,170.84 288.25,179.96 37.29,-32.41 67.16,-146.7 85.03,-200.29 32.47,-97.37 106.89,-245.98 39.34,-245.98 -46.13,0 -72.24,25.53 -117.05,29.26 -1.07,-48.01 -14.63,-95.07 -14.63,-168.26 0,-176.75 -3.91,-263.7 46.98,-443.18 27.65,-97.5 52.99,-166.58 94.46,-249.38 56.17,-112.17 116.12,-211.63 197.25,-307.54 186.81,-220.86 454.42,-392.74 736.72,-463.07 416.11,-103.67 873.35,-28.91 1213.41,227.84l171.16 143.42c30.46,30.64 137.08,149.86 144.45,177.45 24.74,-6.6 34.39,-18.92 54.32,-33.47l157.84 -112.85c-62.06,-117.28 -249.97,-285.81 -369.96,-376.25 -242.9,-183.08 -611.72,-326.07 -924.93,-326.07 -359.83,0 -498.14,27.04 -806.85,158.83 -75.1,32.06 -187.28,101.07 -252.83,149.54 -193.87,143.35 -167.9,132.7 -317.52,289.69 -124.82,130.97 -272.41,404.73 -324.39,582.77 -39.15,134.09 -76.15,281.75 -76.15,435.96z"/>
   <path class="fil0" d="M3087.26 1463.16c0,63.29 105.66,3.38 146.32,0 1.07,48.01 14.63,95.07 14.63,168.26 0,267.06 -21.53,454.03 -136.55,682.81 -66.79,132.84 -105.54,197.4 -198.87,313.24l-126.56 129.49c-47.97,38.3 -58.33,56.01 -144.09,119.28 -62.79,46.32 -95.78,62.01 -159.68,96.37 -93.53,50.29 -79.42,42.18 -175.84,80.21 -198.71,78.37 -360.56,85.64 -572.78,85.64 -283.36,0 -614.44,-137.82 -832.33,-316.25 -24.33,-19.92 -35.79,-31.17 -58.44,-51.29 -48.3,-42.93 -185.91,-174.93 -199.28,-225.03 -22.66,6.05 -83.37,53.24 -105.56,70.02 -36.53,27.61 -70.4,52.07 -106.59,76.3 44.8,84.68 212.27,254.07 299.88,321.96 23.91,18.52 43.61,34.34 70.08,54.29 241.49,182.02 615.17,326.07 924.93,326.07 229.29,0 278.01,4.93 510.66,-52.66 186.17,-46.08 394.85,-141.71 549.02,-255.71 54.33,-40.18 121.73,-88.16 171.35,-135.92 101.67,-97.86 149.98,-151.73 235.23,-269.56 180.78,-249.88 311.48,-599.38 311.48,-902.94 0,-88.4 1.48,-338.3 -29.26,-402.37 47.09,-22.6 139,-25.58 139,-80.47 0,-25.76 -61.98,-53.39 -84.9,-68.73 -33.31,-22.29 -59.51,-39.75 -92.13,-61.5 -36.33,-24.22 -164.21,-111.09 -196.07,-118.51 -33.2,28.86 -30.27,44.67 -48.12,90.88l-105.51 326.13z"/>
   <path class="fil0" d="M994.95 2333.73c0,18.53 -5.43,80.48 43.89,80.48l1536.32 0c109.62,0 -12.62,-325.9 -44.18,-380.14 -154.77,-265.99 -411.47,-439.23 -723.98,-439.23 -226.2,0 -440.75,106.81 -554.19,221.29 -34.39,34.71 -62.04,58.53 -91.72,98.49 -15.56,20.94 -25.84,32.73 -39.58,55.53 -14.01,23.24 -26.23,42.85 -38.5,63.92 -34.44,59.17 -88.07,207.75 -88.07,299.66z"/>
   <path class="fil0" d="M1792.37 1558.26c126.5,0 225.73,-37.53 313.5,-118.13 142.01,-130.42 179.44,-310.38 109.89,-495.46 -55.09,-146.61 -226.76,-271.61 -386.81,-271.61 -109.04,0 -198.18,20.93 -281.27,84.52 -112.33,85.96 -189.56,217.75 -185.5,361.07 3.56,125.46 50.84,226.81 134.58,310.92 73.54,73.85 188.43,128.71 295.61,128.71z"/>
  </g>
 </g>
</svg>
